<svg id="Layer_1" data-name="Layer 1" xmlns="http://www.w3.org/2000/svg" viewBox="0 0 218.83 218.83"><defs><style>.cls-1{fill:#fff;}.cls-2{fill:#3d0c8a;}</style></defs><title>Untitled-3</title><rect class="cls-1" x="44.29" y="3.69" width="131.98" height="131.98" rx="15.7" ry="15.7"/><path class="cls-2" d="M158.08,138.7H62.48a21.24,21.24,0,0,1-21.22-21.22V21.89A21.24,21.24,0,0,1,62.48.67h95.59A21.24,21.24,0,0,1,179.3,21.89v95.59A21.24,21.24,0,0,1,158.08,138.7ZM62.48,7A14.93,14.93,0,0,0,47.57,21.89v95.59A14.93,14.93,0,0,0,62.48,132.4h95.59A14.93,14.93,0,0,0,173,117.48V21.89A14.93,14.93,0,0,0,158.08,7Z"/><path class="cls-2" d="M83.15,62.6a21.58,21.58,0,1,1,15.26-6.31A21.52,21.52,0,0,1,83.15,62.6Zm0-36.85A15.28,15.28,0,1,0,94,30.21,15.24,15.24,0,0,0,83.15,25.74Z"/><path class="cls-2" d="M135.64,116.84A85.36,85.36,0,0,1,86.09,92.36,85.48,85.48,0,0,1,61.87,44.64l6.23-1A79.22,79.22,0,0,0,90.55,87.9a79.11,79.11,0,0,0,45.92,22.69Z"/><path class="cls-2" d="M137.41,116.86a21.58,21.58,0,1,1,15.26-6.31A21.52,21.52,0,0,1,137.41,116.86Zm0-36.85a15.28,15.28,0,1,0,10.81,4.47A15.24,15.24,0,0,0,137.41,80Z"/><rect class="cls-2" x="61.56" y="39.76" width="6.3" height="77.03"/><rect class="cls-2" x="87.79" y="59.02" width="53.85" height="6.3" transform="translate(-10.36 99.33) rotate(-45)"/><path class="cls-2" d="M58.27,168.4v14.91c0,.55,0,1,0,1.21a12.68,12.68,0,0,1-.78,3.37,12.25,12.25,0,0,1-.86,1.73,16,16,0,0,1-1.9,2.51,11.55,11.55,0,0,1-8.82,3.67,11.48,11.48,0,0,1-8.56-3.67,12.3,12.3,0,0,1-3.41-8.86A11.59,11.59,0,0,1,39,173.46l2,2.94a9.78,9.78,0,0,0-3.59,7.09,8.11,8.11,0,0,0,2.51,6,8.43,8.43,0,0,0,6,2.59,7.92,7.92,0,0,0,6-2.46,8.06,8.06,0,0,0,2.51-6V168.4Zm-11.49,3.11a1.9,1.9,0,0,1,1.51.65,2.19,2.19,0,0,1,0,3.11,1.9,1.9,0,0,1-1.51.65,2.2,2.2,0,0,1,0-4.41Z"/><path class="cls-2" d="M82.52,164.73v23.46a8.25,8.25,0,0,1-1.25,4.41,5.3,5.3,0,0,1-3.72,2.51,55,55,0,0,1-7.17.35v-3.28q4.19,0,5.92-.17,2.33-.26,2.68-3.2v-1H73.48a11.46,11.46,0,0,1-8.3-3.37,11.31,11.31,0,0,1-3.46-8.3,11,11,0,0,1,2.64-7.26,12.57,12.57,0,0,1,6.52-4.19ZM79,168.27H72.79a6.89,6.89,0,0,0-5.19,2.51,7.68,7.68,0,0,0-2.07,5.4A8.34,8.34,0,0,0,74,184.52h5Z"/><path class="cls-2" d="M138.17,184.52h2.77v3.28H102.87a7.21,7.21,0,0,1-4.19-1,6.65,6.65,0,0,1-2.55-3.59,15.09,15.09,0,0,1-.39-2.33v-9.68h3.33v7.48q0,3.59,2,5a7.62,7.62,0,0,0,1.38.6,6.51,6.51,0,0,0,1.47.26h30.86V165.07h3.41ZM115,158.64a2.22,2.22,0,0,1,2.12,2.12,2.07,2.07,0,0,1-.65,1.51,2,2,0,0,1-1.47.6,2,2,0,0,1-1.51-.6,2.25,2.25,0,0,1-.61-1.51,2,2,0,0,1,.61-1.47A1.9,1.9,0,0,1,115,158.64Zm5.83,0a1.85,1.85,0,0,1,1.47.65,1.93,1.93,0,0,1,.65,1.47,2.07,2.07,0,0,1-.65,1.51,2,2,0,0,1-1.47.6,2,2,0,0,1-1.51-.6,2.25,2.25,0,0,1-.61-1.51,2.14,2.14,0,0,1,2.12-2.12Z"/><path class="cls-2" d="M171.88,164.69v15.08a7.73,7.73,0,0,1-2.25,5.7,7.52,7.52,0,0,1-5.57,2.33,7.37,7.37,0,0,1-6.09-3,7.34,7.34,0,0,1-6.05,3,7,7,0,0,1-5.53-2.33L146,185a7.07,7.07,0,0,1-5.62,2.81h-1.08v-3.28h1.08a3.56,3.56,0,0,0,2.72-1.3,4.1,4.1,0,0,0,1.12-2.81V164.69h3.63v12.88a15.23,15.23,0,0,0,.47,4.62,3.47,3.47,0,0,0,3.67,2.33,4,4,0,0,0,3-1.3,4.45,4.45,0,0,0,1.21-3.15V164.69h3.63v15.38a4.35,4.35,0,0,0,1.17,3.15,4.18,4.18,0,0,0,6,0,4.61,4.61,0,0,0,1.12-3.2V164.69Z"/><path class="cls-2" d="M186.66,164.77v23.64a8.12,8.12,0,0,1-1.17,4,6.17,6.17,0,0,1-4.62,2.89,47.64,47.64,0,0,1-6.4.26v-3.28l.56,0,.78,0h1.38a7.5,7.5,0,0,0,3.93-1,3.73,3.73,0,0,0,2-3.33V164.77Z"/><path class="cls-2" d="M64,200.77q3,0,4.3,1.06t1.25,3.9a5.49,5.49,0,0,1-.75,3.17,3.3,3.3,0,0,1-2.43,1.26v.13a3.18,3.18,0,0,1,2.12,2.46l1.66,5.42H67.83l-1.51-5.38A2.21,2.21,0,0,0,64,211H60.25v7.19H58.08V201Q60.37,200.77,64,200.77Zm-.06,1.89q-2.73,0-3.7,0v6.41h3.7a3.91,3.91,0,0,0,2.66-.68,3.51,3.51,0,0,0,.72-2.57,3.4,3.4,0,0,0-.72-2.53A4,4,0,0,0,63.94,202.66Z"/><path class="cls-2" d="M80.41,205.75a37.69,37.69,0,0,1,5.11.38l-.17,1.53-1.45-.05-1.71-.05-1.44,0a7.12,7.12,0,0,0-2.42.23q-.59.25-.59,1.32a1.49,1.49,0,0,0,.39,1.2,3.63,3.63,0,0,0,1.4.55l3.53.8a3.85,3.85,0,0,1,2.13,1.06,3.32,3.32,0,0,1,.66,2.26q0,2.12-1.17,2.8a8.46,8.46,0,0,1-4,.68,29.46,29.46,0,0,1-4.75-.36l.15-1.53q1.49.11,4.18.11a8.47,8.47,0,0,0,2.84-.34,1.33,1.33,0,0,0,.71-1.37,2,2,0,0,0-.12-.72,1,1,0,0,0-.41-.46,2.89,2.89,0,0,0-.58-.27c-.19-.06-.46-.14-.81-.22l-3.49-.8a3.67,3.67,0,0,1-2.1-1.11,3.53,3.53,0,0,1-.63-2.27,3,3,0,0,1,1.06-2.7A7,7,0,0,1,80.41,205.75Z"/><path class="cls-2" d="M95.21,206H99v1.68H95.21v7.1a1.73,1.73,0,0,0,.37,1.25,1.77,1.77,0,0,0,1.27.37h1.85l.23,1.62a9.68,9.68,0,0,1-2.73.34,3,3,0,0,1-2.31-.85,3.44,3.44,0,0,1-.8-2.45v-7.37H90.9v-1.55l2.19-.08v-3.61h2.12Z"/><path class="cls-2" d="M113.77,202.64q1.5-2,5.28-2t5.28,2q1.5,2,1.5,7t-1.5,6.94q-1.5,1.94-5.28,1.94t-5.28-1.94q-1.5-1.94-1.5-6.94T113.77,202.64Zm8.8,1.51a4.85,4.85,0,0,0-7,0q-1,1.5-1,5.45t1,5.43a4.86,4.86,0,0,0,7,0q1-1.5,1-5.43T122.57,204.15Z"/><path class="cls-2" d="M139.83,205.75a3.27,3.27,0,0,1,2.45.85,3.43,3.43,0,0,1,.83,2.49v9.08H141v-8.49a2.7,2.7,0,0,0-.39-1.67,1.64,1.64,0,0,0-1.33-.47,4.83,4.83,0,0,0-2,.45,26.49,26.49,0,0,0-2.68,1.48v8.7h-2.12V206h1.81l.15,1.93A9.12,9.12,0,0,1,139.83,205.75Z"/><path class="cls-2" d="M155,205.75a6.35,6.35,0,0,1,3.93,1,3.66,3.66,0,0,1,1.28,3q0,3.45-2.9,3.45H151.7a4,4,0,0,0,1,2.8,4.36,4.36,0,0,0,2.81.73,31.17,31.17,0,0,0,4.2-.29l.23,1.41a12.79,12.79,0,0,1-4.71.67q-3.15,0-4.48-1.46t-1.32-4.93q0-3.51,1.29-4.92T155,205.75Zm.11,1.79a3.44,3.44,0,0,0-2.66.84,5.06,5.06,0,0,0-.81,3.13h5.13q1.32,0,1.32-1.81a2,2,0,0,0-.69-1.66A3.93,3.93,0,0,0,155.15,207.53Z"/></svg>